<?xml version="1.0" encoding="UTF-8"?>
<svg width="1200pt" height="1200pt" version="1.1" viewBox="0 0 1200 1200" xmlns="http://www.w3.org/2000/svg">
 <path d="m600 1134.4c-294.66 0-534.37-239.72-534.37-534.37s239.72-534.37 534.37-534.37c30.984 0 61.969 2.7188 92.156 8.1094 13.219 2.3906 22.922 13.828 23.156 27.281 0.1875 13.453-9.1406 25.172-22.312 27.938-146.26 30.938-252.37 162-252.37 311.68 0 59.062 16.172 116.62 46.828 166.4 8.1562 13.219 4.0312 30.516-9.2344 38.672-13.219 8.1094-30.562 4.0312-38.672-9.1875-36.094-58.641-55.172-126.37-55.172-195.89 0-130.92 69.047-249.74 175.22-317.06-244.82 20.578-437.72 226.4-437.72 476.44 0 263.63 214.5 478.13 478.13 478.13 250.03 0 455.81-192.89 476.44-437.68-67.312 106.12-186.14 175.18-317.06 175.18-8.4844 0-16.922-0.28125-25.266-0.84375-15.516-1.0312-27.281-14.438-26.25-29.906 1.0312-15.516 15-27.281 29.906-26.203 7.1719 0.46875 14.344 0.70312 21.609 0.70312 149.68 0 280.74-106.12 311.68-252.37 2.7656-13.172 13.828-22.734 27.938-22.312 13.453 0.23438 24.891 9.9375 27.281 23.156 5.3906 30.141 8.1094 61.125 8.1094 92.156 0 294.66-239.72 534.37-534.37 534.37z"/>
 <path d="m613.97 1021.1c-25.781 0-51.141-2.5312-75.891-7.6875-15.234-3.1406-25.031-18-21.844-33.234 3.1406-15.188 18.141-24.984 33.234-21.844 54.703 11.297 113.16 7.875 173.72-10.312 14.766-4.4531 30.562 3.9844 35.016 18.891 4.4531 14.859-3.9844 30.562-18.891 35.016-42.609 12.75-84.562 19.172-125.34 19.172z"/>
 <path d="m450 978.32c-4.9688 0-9.9375-1.2656-14.438-3.9844-13.781-8.25-21.469-14.531-22.312-15.234-11.906-9.9375-13.547-27.656-3.6094-39.609 9.8906-11.859 27.516-13.547 39.516-3.7031 0.1875 0.1875 5.5312 4.4531 15.281 10.312 13.312 7.9688 17.672 25.219 9.7031 38.578-5.2969 8.8125-14.625 13.641-24.141 13.641z"/>
 <path d="m230.63 488.29c-1.5938 0-3.2344-0.1875-4.9219-0.46875-15.281-2.6719-25.5-17.297-22.781-32.578 12.703-72.094 56.578-116.58 58.453-118.45 11.016-10.969 28.828-10.969 39.797 0.046875 10.922 10.969 10.922 28.688 0.046875 39.703-0.84375 0.84375-33.469 34.922-42.891 88.5-2.4375 13.641-14.297 23.203-27.703 23.25z"/>
 <path d="m597.66 890.63c-15.562 0-28.125-12.609-28.125-28.125 0-107.25-87.281-194.53-194.53-194.53-15.516 0-28.125-12.562-28.125-28.125 0-15.516 12.609-28.125 28.125-28.125 107.25 0 194.53-87.234 194.53-194.48 0-15.562 12.562-28.125 28.125-28.125 15.516 0 28.125 12.562 28.125 28.125 0 107.25 87.234 194.48 194.48 194.48 15.516 0 28.125 12.609 28.125 28.125 0 15.562-12.609 28.125-28.125 28.125-107.25 0-194.48 87.281-194.48 194.53 0 15.516-12.609 28.125-28.125 28.125zm-107.34-250.78c45.844 23.859 83.484 61.5 107.34 107.34 23.812-45.844 61.453-83.484 107.3-107.34-45.844-23.812-83.484-61.453-107.3-107.3-23.859 45.844-61.5 83.484-107.34 107.3z"/>
 <path d="m735.94 478.13c-15.516 0-28.125-12.609-28.125-28.125 0-56.859-46.266-103.12-103.12-103.12-15.516 0-28.125-12.609-28.125-28.125s12.609-28.125 28.125-28.125c56.859 0 103.12-46.266 103.12-103.12 0-15.516 12.609-28.125 28.125-28.125s28.125 12.609 28.125 28.125c0 56.859 46.266 103.12 103.12 103.12 15.516 0 28.125 12.609 28.125 28.125s-12.609 28.125-28.125 28.125c-56.859 0-103.12 46.266-103.12 103.12 0 15.516-12.609 28.125-28.125 28.125zm-40.922-159.37c15.984 11.062 29.859 24.938 40.922 40.922 11.062-15.984 24.938-29.859 40.922-40.922-15.984-11.062-29.859-24.938-40.922-40.922-11.062 15.984-24.938 29.859-40.922 40.922z"/>
 <path d="m885.89 601.45c-15.516 0-28.125-12.609-28.125-28.125 0-20.672-16.828-37.5-37.5-37.5-15.516 0-28.125-12.609-28.125-28.125 0-15.562 12.609-28.125 28.125-28.125 20.672 0 37.5-16.828 37.5-37.5 0-15.562 12.609-28.125 28.125-28.125s28.125 12.562 28.125 28.125c0 20.672 16.828 37.5 37.5 37.5 15.516 0 28.125 12.562 28.125 28.125 0 15.516-12.609 28.125-28.125 28.125-20.672 0-37.5 16.828-37.5 37.5 0 15.516-12.609 28.125-28.125 28.125z"/>
</svg>
